<?xml version="1.0" encoding="utf-8" standalone="no"?>
<!DOCTYPE svg PUBLIC "-//W3C//DTD SVG 1.1//EN"
  "http://www.w3.org/Graphics/SVG/1.1/DTD/svg11.dtd">
<!-- Created with matplotlib (http://matplotlib.sourceforge.net/) -->
<svg height="432pt" version="1.1" viewBox="0 0 576 432" width="576pt" xmlns="http://www.w3.org/2000/svg" xmlns:xlink="http://www.w3.org/1999/xlink">
 <defs>
  <style type="text/css">
*{stroke-linecap:square;stroke-linejoin:round;}
  </style>
 </defs>
 <g id="figure_1">
  <g id="patch_1">
   <path d="
M0 432
L576 432
L576 0
L0 0
z
" style="fill:#ffffff;"/>
  </g>
  <g id="axes_1">
   <g id="patch_2">
    <path d="
M72 388.8
L518.4 388.8
L518.4 43.2
L72 43.2
z
" style="fill:#ffffff;"/>
   </g>
   <g id="line2d_1">
    <path clip-path="url(#p7ff5b81e1d)" d="
M72 388.789
L73.116 388.433
L74.232 388.427
L75.348 387.892
L76.464 387.674
L77.58 387.595
L78.696 386.226
L80.928 385.222
L82.044 384.416
L83.16 383.879
L84.276 383.058
L85.392 382.962
L86.508 381.432
L87.624 378.739
L88.74 378.58
L89.856 377.982
L90.972 377.208
L92.088 377.207
L93.204 375.138
L94.32 375.08
L96.552 374.174
L97.668 372.884
L98.784 372.074
L99.9 368.509
L101.016 367.885
L102.132 367.463
L103.248 366.687
L104.364 366.098
L105.48 366.081
L106.596 364.705
L107.712 364.524
L108.828 361.494
L109.944 357.391
L111.06 354.73
L112.176 353.316
L113.292 352.694
L114.408 350.559
L115.524 350.459
L116.64 349.234
L118.872 348.603
L119.988 347.204
L121.104 346.203
L122.22 344.092
L123.336 343.466
L124.452 342.988
L125.568 342.96
L126.684 341.853
L127.8 340.066
L128.916 339.775
L130.032 338.046
L131.148 337.67
L132.264 337.668
L133.38 337.333
L134.496 336.535
L135.612 333.273
L136.728 333.17
L137.844 332.235
L138.96 331.988
L140.076 330.8
L141.192 330.512
L142.308 330.054
L143.424 328.838
L144.54 327.434
L145.656 326.736
L146.772 325.371
L147.888 324.344
L149.004 324.255
L150.12 322.742
L151.236 318.492
L152.352 317.977
L153.468 316.738
L154.584 316.521
L155.7 315.183
L156.816 314.995
L157.932 314.474
L159.048 313.103
L160.164 313.024
L161.28 312.322
L162.396 309.523
L165.744 309.487
L166.86 309.207
L167.976 308.369
L169.092 304.417
L170.208 303.89
L171.324 302.067
L172.44 301.094
L175.788 300.588
L176.904 297.23
L178.02 296.926
L179.136 293.214
L180.252 289.1
L181.368 286.73
L182.484 283.849
L183.6 282.219
L184.716 281.046
L186.948 280.548
L188.064 279.899
L189.18 279.72
L190.296 278.379
L191.412 277.276
L192.528 274.892
L194.76 274.265
L195.876 274.172
L196.992 273.902
L198.108 271.275
L199.224 269.502
L200.34 269.203
L201.456 266.651
L202.572 264.863
L203.688 262.231
L205.92 260.327
L207.036 259.922
L208.152 258.763
L209.268 257.898
L211.5 256.657
L212.616 254.124
L214.848 253.585
L215.964 252.09
L217.08 252.066
L218.196 251.662
L220.428 250.334
L221.544 250.197
L222.66 249.219
L223.776 248.636
L224.892 248.438
L226.008 247.988
L227.124 247.044
L228.24 246.835
L229.356 246.323
L230.472 245.387
L232.704 244.196
L233.82 244.023
L234.936 242.724
L236.052 242.366
L237.168 240.597
L238.284 239.872
L239.4 239.55
L240.516 239.076
L242.748 238.442
L243.864 237.245
L244.98 235.691
L246.096 234.741
L247.212 234.288
L248.328 231.375
L249.444 231.315
L250.56 229.405
L251.676 229.309
L252.792 228.806
L255.024 226.187
L258.372 224.21
L259.488 224.05
L260.604 223.587
L261.72 222.076
L262.836 221.608
L263.952 220.456
L265.068 219.465
L266.184 219.058
L268.416 215.839
L270.648 215.641
L271.764 215.568
L272.88 213.221
L275.112 210.994
L276.228 210.687
L277.344 209.503
L278.46 209.055
L279.576 208.892
L280.692 208.298
L281.808 208.19
L284.04 207.768
L285.156 207.15
L286.272 207.067
L287.388 206.31
L289.62 204.387
L290.736 203.728
L291.852 203.577
L292.968 203.212
L294.084 202.285
L295.2 199.872
L296.316 199.502
L297.432 198.993
L298.548 196.879
L299.664 196.663
L300.78 194.82
L301.896 194.113
L304.128 193.851
L305.244 193.8
L306.36 192.612
L307.476 192.349
L308.592 191.823
L309.708 191.161
L310.824 187.516
L311.94 186.663
L313.056 186.657
L314.172 183.965
L315.288 181.901
L316.404 181.17
L317.52 180.89
L318.636 180.76
L319.752 180.147
L320.868 180.09
L321.984 179.791
L323.1 177.728
L324.216 177.408
L325.332 176.844
L326.448 175.971
L327.564 174.95
L328.68 174.71
L330.912 173.858
L333.144 171.228
L334.26 171.063
L335.376 170.46
L336.492 167.717
L337.608 164.06
L338.724 162.464
L339.84 161.802
L340.956 161.798
L342.072 160.576
L343.188 159.764
L344.304 159.549
L345.42 158.013
L348.768 157.605
L349.884 157.032
L351 152.707
L352.116 151.239
L353.232 147.454
L354.348 146.993
L355.464 144.64
L356.58 144.071
L357.696 143.772
L359.928 142.382
L361.044 141.028
L362.16 140.842
L363.276 137.235
L364.392 136.885
L365.508 134.728
L366.624 133.171
L367.74 131.171
L368.856 130.99
L369.972 130.359
L371.088 128.883
L372.204 128.333
L373.32 126.785
L374.436 126.421
L375.552 122.248
L376.668 122.187
L377.784 120.745
L378.9 117.353
L381.132 113.307
L382.248 112.956
L383.364 111.581
L384.48 111.089
L385.596 109.829
L386.712 109.742
L387.828 108.509
L388.944 108.502
L390.06 106.294
L391.176 104.781
L392.292 103.721
L393.408 102.287
L395.64 100.242
L396.756 99.909
L397.872 97.7149
L398.988 97.0316
L400.104 96.7848
L401.22 95.6048
L402.336 95.3155
L404.568 93.4048
L405.684 93.2123
L406.8 92.7768
L407.916 92.6692
L409.032 90.2391
L411.264 87.5938
L412.38 86.9154
L413.496 83.18
L414.612 81.4609
L415.728 81.2999
L417.96 80.0755
L419.076 78.234
L420.192 77.443
L421.308 77.3986
L422.424 74.7543
L423.54 74.3079
L424.656 74.0137
L425.772 72.574
L426.888 72.1455
L428.004 68.7359
L429.12 68.256
L430.236 67.5766
L431.352 66.2505
L432.468 66.0679
L433.584 64.2648
L434.7 63.3682
L435.816 62.0599
L436.932 61.3549
L439.164 61.0063
L440.28 60.1176
L441.396 59.8224
L442.512 59.8036
L443.628 59.5064
L444.744 58.9534
L445.86 57.6984
L446.976 57.259
L448.092 56.3012
L450.324 53.2273
L452.556 48.4423
L453.672 47.4292
L455.904 46.9315
L457.02 45.4316
L457.02 45.4316" style="fill:none;stroke:#0000ff;"/>
   </g>
   <g id="line2d_2">
    <path clip-path="url(#p7ff5b81e1d)" d="
M72 388.605
L74.232 387.867
L76.464 387.815
L78.696 387.142
L79.812 386.914
L80.928 386.862
L82.044 385.014
L84.276 384.842
L85.392 384.184
L86.508 384.181
L87.624 383.976
L88.74 383.625
L89.856 381.986
L90.972 381.935
L92.088 379.985
L94.32 379.589
L95.436 379.181
L96.552 379.181
L97.668 378.726
L101.016 378.29
L102.132 377.303
L104.364 377.159
L105.48 375.254
L107.712 373.766
L108.828 373.714
L109.944 373.401
L112.176 373.191
L113.292 372.657
L115.524 372.483
L116.64 372.016
L117.756 371.112
L118.872 371.015
L121.104 368.525
L122.22 368.251
L123.336 367.67
L125.568 367.063
L126.684 367.02
L127.8 366.568
L128.916 364.386
L131.148 363.487
L132.264 363.104
L133.38 362.866
L134.496 362.503
L137.844 362.032
L138.96 361.675
L140.076 361.58
L141.192 361.013
L143.424 360.789
L145.656 360.516
L146.772 358.726
L147.888 357.916
L149.004 357.646
L150.12 357.123
L154.584 356.007
L155.7 355.706
L156.816 354.806
L157.932 354.234
L159.048 354.146
L160.164 353.362
L161.28 352.818
L162.396 352.668
L163.512 352.662
L164.628 352.316
L165.744 350.52
L166.86 350.091
L167.976 349.078
L169.092 348.856
L170.208 346.632
L172.44 346.616
L173.556 346.397
L174.672 346.354
L175.788 346.156
L176.904 345.064
L178.02 344.425
L179.136 344.1
L180.252 343.976
L181.368 343.403
L184.716 343
L185.832 342.689
L186.948 342.229
L189.18 342.05
L190.296 341.682
L191.412 341.155
L192.528 341.075
L193.644 339.844
L195.876 339.173
L196.992 338.161
L198.108 338.126
L199.224 337.832
L200.34 337.408
L201.456 335.695
L202.572 335.184
L203.688 335.111
L205.92 334.727
L207.036 334.115
L208.152 333.796
L209.268 332.766
L210.384 332.721
L212.616 331.477
L213.732 330.997
L214.848 330.371
L215.964 330.115
L219.312 329.969
L221.544 327.692
L222.66 327.551
L226.008 325.945
L227.124 325.64
L228.24 325.621
L229.356 325.192
L230.472 324.969
L231.588 324.125
L232.704 323.476
L233.82 323.279
L236.052 323.18
L238.284 320.851
L239.4 320.839
L240.516 320.482
L241.632 320.45
L242.748 319.13
L243.864 318.724
L244.98 317.417
L246.096 317.345
L247.212 316.994
L249.444 316.693
L250.56 316.487
L251.676 314.228
L252.792 312.85
L253.908 312.8
L256.14 311.868
L257.256 311.587
L259.488 310.586
L260.604 309.157
L261.72 309.045
L263.952 308.238
L265.068 307.305
L266.184 306.668
L267.3 304.486
L268.416 303.216
L269.532 302.616
L270.648 302.615
L272.88 301.734
L275.112 300.341
L276.228 300.253
L278.46 299.694
L279.576 299.28
L280.692 299.219
L281.808 298.598
L282.924 298.46
L287.388 297.485
L289.62 296.391
L290.736 296.187
L291.852 295.442
L294.084 295.403
L295.2 294.932
L296.316 294.687
L297.432 294.607
L298.548 294.143
L299.664 292.387
L300.78 292.225
L301.896 290.945
L303.012 290.67
L304.128 289.377
L305.244 289.097
L306.36 288.664
L310.824 288.017
L311.94 287.127
L313.056 286.865
L314.172 286.141
L315.288 285.791
L317.52 285.772
L318.636 285.534
L319.752 285.176
L320.868 285.074
L321.984 283.737
L323.1 283.154
L324.216 282.935
L326.448 281.804
L327.564 281.394
L328.68 280.548
L329.796 280.099
L332.028 279.995
L333.144 278.774
L335.376 277.15
L336.492 275.424
L337.608 274.943
L338.724 274.843
L339.84 274.534
L340.956 274.058
L342.072 272.91
L343.188 272.411
L344.304 272.37
L345.42 271.511
L347.652 271.343
L348.768 270.712
L349.884 270.682
L352.116 269.696
L354.348 266.276
L357.696 265.925
L358.812 265.552
L359.928 264.552
L361.044 264.397
L362.16 264.077
L363.276 263.981
L364.392 263.012
L366.624 262.352
L367.74 262.225
L368.856 260.239
L369.972 259.011
L373.32 258.575
L374.436 258.524
L375.552 257.755
L376.668 257.669
L377.784 257.275
L378.9 255.406
L382.248 255.045
L383.364 254.449
L384.48 253.163
L385.596 252.369
L386.712 252.146
L387.828 250.5
L388.944 250.019
L390.06 249.193
L391.176 249.136
L392.292 248.175
L394.524 247.536
L395.64 247.003
L396.756 245.606
L397.872 245.348
L398.988 244.698
L400.104 244.578
L401.22 244.004
L402.336 242.961
L403.452 242.236
L405.684 241.83
L407.916 240.613
L409.032 239.604
L411.264 239.097
L412.38 237.989
L413.496 237.823
L414.612 237.452
L415.728 237.21
L417.96 237.031
L419.076 236.615
L421.308 236.141
L422.424 234.796
L423.54 234.624
L424.656 234.319
L425.772 234.221
L426.888 233.215
L428.004 232.994
L430.236 232.025
L433.584 231.342
L434.7 229.936
L435.816 229.423
L436.932 228.02
L438.048 227.917
L439.164 227.594
L441.396 226.234
L442.512 226.123
L445.86 224.585
L446.976 224.327
L449.208 223.095
L450.324 222.915
L451.44 222.18
L452.556 221.845
L453.672 221.386
L454.788 221.28
L455.904 220.373
L457.02 220.107
L460.368 219.968
L461.484 217.645
L462.6 217.337
L463.716 216.815
L465.948 216.019
L468.18 215.044
L469.296 214.547
L470.412 214.527
L471.528 214.1
L472.644 214.074
L473.76 212.134
L474.876 211.529
L475.992 210.124
L477.108 208.942
L478.224 208.787
L479.34 207.349
L481.572 205.533
L484.92 204.878
L486.036 204.397
L488.268 203.132
L489.384 201.793
L490.5 201.445
L491.616 201.345
L493.848 200.73
L494.964 200.468
L497.196 199.505
L499.428 197.771
L500.544 197.715
L501.66 197.399
L502.776 197.223
L503.892 196.309
L505.008 196.07
L506.124 195.5
L507.24 195.213
L508.356 194.522
L509.472 192.787
L510.588 192.45
L511.704 192.264
L512.82 191.859
L512.82 191.859" style="fill:none;stroke:#008000;"/>
   </g>
   <g id="matplotlib.axis_1">
    <g id="xtick_1">
     <g id="line2d_3">
      <defs>
       <path d="
M0 0
L0 -4" id="m0012dd4eef" style="stroke:#000000;stroke-linecap:butt;stroke-width:0.5;"/>
      </defs>
      <g>
       <use style="stroke:#000000;stroke-linecap:butt;stroke-width:0.5;" x="72.0" xlink:href="#m0012dd4eef" y="388.8"/>
      </g>
     </g>
     <g id="line2d_4">
      <defs>
       <path d="
M0 0
L0 4" id="m476344969c" style="stroke:#000000;stroke-linecap:butt;stroke-width:0.5;"/>
      </defs>
      <g>
       <use style="stroke:#000000;stroke-linecap:butt;stroke-width:0.5;" x="72.0" xlink:href="#m476344969c" y="43.2"/>
      </g>
     </g>
     <g id="text_1">
      <!-- 0 -->
      <defs>
       <path d="
M31.7812 66.4062
Q24.1719 66.4062 20.3281 58.9062
Q16.5 51.4219 16.5 36.375
Q16.5 21.3906 20.3281 13.8906
Q24.1719 6.39062 31.7812 6.39062
Q39.4531 6.39062 43.2812 13.8906
Q47.125 21.3906 47.125 36.375
Q47.125 51.4219 43.2812 58.9062
Q39.4531 66.4062 31.7812 66.4062
M31.7812 74.2188
Q44.0469 74.2188 50.5156 64.5156
Q56.9844 54.8281 56.9844 36.375
Q56.9844 17.9688 50.5156 8.26562
Q44.0469 -1.42188 31.7812 -1.42188
Q19.5312 -1.42188 13.0625 8.26562
Q6.59375 17.9688 6.59375 36.375
Q6.59375 54.8281 13.0625 64.5156
Q19.5312 74.2188 31.7812 74.2188" id="BitstreamVeraSans-Roman-30"/>
      </defs>
      <g transform="translate(67.46484375 406.159375)scale(0.18 -0.18)">
       <use xlink:href="#BitstreamVeraSans-Roman-30"/>
      </g>
     </g>
    </g>
    <g id="xtick_2">
     <g id="line2d_5">
      <g>
       <use style="stroke:#000000;stroke-linecap:butt;stroke-width:0.5;" x="127.8" xlink:href="#m0012dd4eef" y="388.8"/>
      </g>
     </g>
     <g id="line2d_6">
      <g>
       <use style="stroke:#000000;stroke-linecap:butt;stroke-width:0.5;" x="127.8" xlink:href="#m476344969c" y="43.2"/>
      </g>
     </g>
     <g id="text_2">
      <!-- 50 -->
      <defs>
       <path d="
M10.7969 72.9062
L49.5156 72.9062
L49.5156 64.5938
L19.8281 64.5938
L19.8281 46.7344
Q21.9688 47.4688 24.1094 47.8281
Q26.2656 48.1875 28.4219 48.1875
Q40.625 48.1875 47.75 41.5
Q54.8906 34.8125 54.8906 23.3906
Q54.8906 11.625 47.5625 5.09375
Q40.2344 -1.42188 26.9062 -1.42188
Q22.3125 -1.42188 17.5469 -0.640625
Q12.7969 0.140625 7.71875 1.70312
L7.71875 11.625
Q12.1094 9.23438 16.7969 8.0625
Q21.4844 6.89062 26.7031 6.89062
Q35.1562 6.89062 40.0781 11.3281
Q45.0156 15.7656 45.0156 23.3906
Q45.0156 31 40.0781 35.4375
Q35.1562 39.8906 26.7031 39.8906
Q22.75 39.8906 18.8125 39.0156
Q14.8906 38.1406 10.7969 36.2812
z
" id="BitstreamVeraSans-Roman-35"/>
      </defs>
      <g transform="translate(117.63984375 406.159375)scale(0.18 -0.18)">
       <use xlink:href="#BitstreamVeraSans-Roman-35"/>
       <use x="63.623046875" xlink:href="#BitstreamVeraSans-Roman-30"/>
      </g>
     </g>
    </g>
    <g id="xtick_3">
     <g id="line2d_7">
      <g>
       <use style="stroke:#000000;stroke-linecap:butt;stroke-width:0.5;" x="183.6" xlink:href="#m0012dd4eef" y="388.8"/>
      </g>
     </g>
     <g id="line2d_8">
      <g>
       <use style="stroke:#000000;stroke-linecap:butt;stroke-width:0.5;" x="183.6" xlink:href="#m476344969c" y="43.2"/>
      </g>
     </g>
     <g id="text_3">
      <!-- 100 -->
      <defs>
       <path d="
M12.4062 8.29688
L28.5156 8.29688
L28.5156 63.9219
L10.9844 60.4062
L10.9844 69.3906
L28.4219 72.9062
L38.2812 72.9062
L38.2812 8.29688
L54.3906 8.29688
L54.3906 0
L12.4062 0
z
" id="BitstreamVeraSans-Roman-31"/>
      </defs>
      <g transform="translate(168.0075 406.159375)scale(0.18 -0.18)">
       <use xlink:href="#BitstreamVeraSans-Roman-31"/>
       <use x="63.623046875" xlink:href="#BitstreamVeraSans-Roman-30"/>
       <use x="127.24609375" xlink:href="#BitstreamVeraSans-Roman-30"/>
      </g>
     </g>
    </g>
    <g id="xtick_4">
     <g id="line2d_9">
      <g>
       <use style="stroke:#000000;stroke-linecap:butt;stroke-width:0.5;" x="239.4" xlink:href="#m0012dd4eef" y="388.8"/>
      </g>
     </g>
     <g id="line2d_10">
      <g>
       <use style="stroke:#000000;stroke-linecap:butt;stroke-width:0.5;" x="239.4" xlink:href="#m476344969c" y="43.2"/>
      </g>
     </g>
     <g id="text_4">
      <!-- 150 -->
      <g transform="translate(223.8075 406.159375)scale(0.18 -0.18)">
       <use xlink:href="#BitstreamVeraSans-Roman-31"/>
       <use x="63.623046875" xlink:href="#BitstreamVeraSans-Roman-35"/>
       <use x="127.24609375" xlink:href="#BitstreamVeraSans-Roman-30"/>
      </g>
     </g>
    </g>
    <g id="xtick_5">
     <g id="line2d_11">
      <g>
       <use style="stroke:#000000;stroke-linecap:butt;stroke-width:0.5;" x="295.2" xlink:href="#m0012dd4eef" y="388.8"/>
      </g>
     </g>
     <g id="line2d_12">
      <g>
       <use style="stroke:#000000;stroke-linecap:butt;stroke-width:0.5;" x="295.2" xlink:href="#m476344969c" y="43.2"/>
      </g>
     </g>
     <g id="text_5">
      <!-- 200 -->
      <defs>
       <path d="
M19.1875 8.29688
L53.6094 8.29688
L53.6094 0
L7.32812 0
L7.32812 8.29688
Q12.9375 14.1094 22.625 23.8906
Q32.3281 33.6875 34.8125 36.5312
Q39.5469 41.8438 41.4219 45.5312
Q43.3125 49.2188 43.3125 52.7812
Q43.3125 58.5938 39.2344 62.25
Q35.1562 65.9219 28.6094 65.9219
Q23.9688 65.9219 18.8125 64.3125
Q13.6719 62.7031 7.8125 59.4219
L7.8125 69.3906
Q13.7656 71.7812 18.9375 73
Q24.125 74.2188 28.4219 74.2188
Q39.75 74.2188 46.4844 68.5469
Q53.2188 62.8906 53.2188 53.4219
Q53.2188 48.9219 51.5312 44.8906
Q49.8594 40.875 45.4062 35.4062
Q44.1875 33.9844 37.6406 27.2188
Q31.1094 20.4531 19.1875 8.29688" id="BitstreamVeraSans-Roman-32"/>
      </defs>
      <g transform="translate(279.2784375 406.159375)scale(0.18 -0.18)">
       <use xlink:href="#BitstreamVeraSans-Roman-32"/>
       <use x="63.623046875" xlink:href="#BitstreamVeraSans-Roman-30"/>
       <use x="127.24609375" xlink:href="#BitstreamVeraSans-Roman-30"/>
      </g>
     </g>
    </g>
    <g id="xtick_6">
     <g id="line2d_13">
      <g>
       <use style="stroke:#000000;stroke-linecap:butt;stroke-width:0.5;" x="351.0" xlink:href="#m0012dd4eef" y="388.8"/>
      </g>
     </g>
     <g id="line2d_14">
      <g>
       <use style="stroke:#000000;stroke-linecap:butt;stroke-width:0.5;" x="351.0" xlink:href="#m476344969c" y="43.2"/>
      </g>
     </g>
     <g id="text_6">
      <!-- 250 -->
      <g transform="translate(335.0784375 406.159375)scale(0.18 -0.18)">
       <use xlink:href="#BitstreamVeraSans-Roman-32"/>
       <use x="63.623046875" xlink:href="#BitstreamVeraSans-Roman-35"/>
       <use x="127.24609375" xlink:href="#BitstreamVeraSans-Roman-30"/>
      </g>
     </g>
    </g>
    <g id="xtick_7">
     <g id="line2d_15">
      <g>
       <use style="stroke:#000000;stroke-linecap:butt;stroke-width:0.5;" x="406.8" xlink:href="#m0012dd4eef" y="388.8"/>
      </g>
     </g>
     <g id="line2d_16">
      <g>
       <use style="stroke:#000000;stroke-linecap:butt;stroke-width:0.5;" x="406.8" xlink:href="#m476344969c" y="43.2"/>
      </g>
     </g>
     <g id="text_7">
      <!-- 300 -->
      <defs>
       <path d="
M40.5781 39.3125
Q47.6562 37.7969 51.625 33
Q55.6094 28.2188 55.6094 21.1875
Q55.6094 10.4062 48.1875 4.48438
Q40.7656 -1.42188 27.0938 -1.42188
Q22.5156 -1.42188 17.6562 -0.515625
Q12.7969 0.390625 7.625 2.20312
L7.625 11.7188
Q11.7188 9.32812 16.5938 8.10938
Q21.4844 6.89062 26.8125 6.89062
Q36.0781 6.89062 40.9375 10.5469
Q45.7969 14.2031 45.7969 21.1875
Q45.7969 27.6406 41.2812 31.2656
Q36.7656 34.9062 28.7188 34.9062
L20.2188 34.9062
L20.2188 43.0156
L29.1094 43.0156
Q36.375 43.0156 40.2344 45.9219
Q44.0938 48.8281 44.0938 54.2969
Q44.0938 59.9062 40.1094 62.9062
Q36.1406 65.9219 28.7188 65.9219
Q24.6562 65.9219 20.0156 65.0312
Q15.375 64.1562 9.8125 62.3125
L9.8125 71.0938
Q15.4375 72.6562 20.3438 73.4375
Q25.25 74.2188 29.5938 74.2188
Q40.8281 74.2188 47.3594 69.1094
Q53.9062 64.0156 53.9062 55.3281
Q53.9062 49.2656 50.4375 45.0938
Q46.9688 40.9219 40.5781 39.3125" id="BitstreamVeraSans-Roman-33"/>
      </defs>
      <g transform="translate(390.90515625 406.159375)scale(0.18 -0.18)">
       <use xlink:href="#BitstreamVeraSans-Roman-33"/>
       <use x="63.623046875" xlink:href="#BitstreamVeraSans-Roman-30"/>
       <use x="127.24609375" xlink:href="#BitstreamVeraSans-Roman-30"/>
      </g>
     </g>
    </g>
    <g id="xtick_8">
     <g id="line2d_17">
      <g>
       <use style="stroke:#000000;stroke-linecap:butt;stroke-width:0.5;" x="462.6" xlink:href="#m0012dd4eef" y="388.8"/>
      </g>
     </g>
     <g id="line2d_18">
      <g>
       <use style="stroke:#000000;stroke-linecap:butt;stroke-width:0.5;" x="462.6" xlink:href="#m476344969c" y="43.2"/>
      </g>
     </g>
     <g id="text_8">
      <!-- 350 -->
      <g transform="translate(446.70515625 406.159375)scale(0.18 -0.18)">
       <use xlink:href="#BitstreamVeraSans-Roman-33"/>
       <use x="63.623046875" xlink:href="#BitstreamVeraSans-Roman-35"/>
       <use x="127.24609375" xlink:href="#BitstreamVeraSans-Roman-30"/>
      </g>
     </g>
    </g>
    <g id="xtick_9">
     <g id="line2d_19">
      <g>
       <use style="stroke:#000000;stroke-linecap:butt;stroke-width:0.5;" x="518.4" xlink:href="#m0012dd4eef" y="388.8"/>
      </g>
     </g>
     <g id="line2d_20">
      <g>
       <use style="stroke:#000000;stroke-linecap:butt;stroke-width:0.5;" x="518.4" xlink:href="#m476344969c" y="43.2"/>
      </g>
     </g>
     <g id="text_9">
      <!-- 400 -->
      <defs>
       <path d="
M37.7969 64.3125
L12.8906 25.3906
L37.7969 25.3906
z

M35.2031 72.9062
L47.6094 72.9062
L47.6094 25.3906
L58.0156 25.3906
L58.0156 17.1875
L47.6094 17.1875
L47.6094 0
L37.7969 0
L37.7969 17.1875
L4.89062 17.1875
L4.89062 26.7031
z
" id="BitstreamVeraSans-Roman-34"/>
      </defs>
      <g transform="translate(502.2590625 406.159375)scale(0.18 -0.18)">
       <use xlink:href="#BitstreamVeraSans-Roman-34"/>
       <use x="63.623046875" xlink:href="#BitstreamVeraSans-Roman-30"/>
       <use x="127.24609375" xlink:href="#BitstreamVeraSans-Roman-30"/>
      </g>
     </g>
    </g>
   </g>
   <g id="matplotlib.axis_2">
    <g id="ytick_1">
     <g id="line2d_21">
      <defs>
       <path d="
M0 0
L4 0" id="me8a85f7bf6" style="stroke:#000000;stroke-linecap:butt;stroke-width:0.5;"/>
      </defs>
      <g>
       <use style="stroke:#000000;stroke-linecap:butt;stroke-width:0.5;" x="72.0" xlink:href="#me8a85f7bf6" y="388.8"/>
      </g>
     </g>
     <g id="line2d_22">
      <defs>
       <path d="
M0 0
L-4 0" id="m1a32005dea" style="stroke:#000000;stroke-linecap:butt;stroke-width:0.5;"/>
      </defs>
      <g>
       <use style="stroke:#000000;stroke-linecap:butt;stroke-width:0.5;" x="518.4" xlink:href="#m1a32005dea" y="388.8"/>
      </g>
     </g>
     <g id="text_10">
      <!-- 0.00 -->
      <defs>
       <path d="
M10.6875 12.4062
L21 12.4062
L21 0
L10.6875 0
z
" id="BitstreamVeraSans-Roman-2e"/>
      </defs>
      <g transform="translate(30.3040625 395.35171875)scale(0.18 -0.18)">
       <use xlink:href="#BitstreamVeraSans-Roman-30"/>
       <use x="63.623046875" xlink:href="#BitstreamVeraSans-Roman-2e"/>
       <use x="95.41015625" xlink:href="#BitstreamVeraSans-Roman-30"/>
       <use x="159.033203125" xlink:href="#BitstreamVeraSans-Roman-30"/>
      </g>
     </g>
    </g>
    <g id="ytick_2">
     <g id="line2d_23">
      <g>
       <use style="stroke:#000000;stroke-linecap:butt;stroke-width:0.5;" x="72.0" xlink:href="#me8a85f7bf6" y="339.428571429"/>
      </g>
     </g>
     <g id="line2d_24">
      <g>
       <use style="stroke:#000000;stroke-linecap:butt;stroke-width:0.5;" x="518.4" xlink:href="#m1a32005dea" y="339.428571429"/>
      </g>
     </g>
     <g id="text_11">
      <!-- 0.05 -->
      <g transform="translate(30.6809375 345.980290179)scale(0.18 -0.18)">
       <use xlink:href="#BitstreamVeraSans-Roman-30"/>
       <use x="63.623046875" xlink:href="#BitstreamVeraSans-Roman-2e"/>
       <use x="95.41015625" xlink:href="#BitstreamVeraSans-Roman-30"/>
       <use x="159.033203125" xlink:href="#BitstreamVeraSans-Roman-35"/>
      </g>
     </g>
    </g>
    <g id="ytick_3">
     <g id="line2d_25">
      <g>
       <use style="stroke:#000000;stroke-linecap:butt;stroke-width:0.5;" x="72.0" xlink:href="#me8a85f7bf6" y="290.057142857"/>
      </g>
     </g>
     <g id="line2d_26">
      <g>
       <use style="stroke:#000000;stroke-linecap:butt;stroke-width:0.5;" x="518.4" xlink:href="#m1a32005dea" y="290.057142857"/>
      </g>
     </g>
     <g id="text_12">
      <!-- 0.10 -->
      <g transform="translate(30.3040625 296.608861607)scale(0.18 -0.18)">
       <use xlink:href="#BitstreamVeraSans-Roman-30"/>
       <use x="63.623046875" xlink:href="#BitstreamVeraSans-Roman-2e"/>
       <use x="95.41015625" xlink:href="#BitstreamVeraSans-Roman-31"/>
       <use x="159.033203125" xlink:href="#BitstreamVeraSans-Roman-30"/>
      </g>
     </g>
    </g>
    <g id="ytick_4">
     <g id="line2d_27">
      <g>
       <use style="stroke:#000000;stroke-linecap:butt;stroke-width:0.5;" x="72.0" xlink:href="#me8a85f7bf6" y="240.685714286"/>
      </g>
     </g>
     <g id="line2d_28">
      <g>
       <use style="stroke:#000000;stroke-linecap:butt;stroke-width:0.5;" x="518.4" xlink:href="#m1a32005dea" y="240.685714286"/>
      </g>
     </g>
     <g id="text_13">
      <!-- 0.15 -->
      <g transform="translate(30.6809375 247.237433036)scale(0.18 -0.18)">
       <use xlink:href="#BitstreamVeraSans-Roman-30"/>
       <use x="63.623046875" xlink:href="#BitstreamVeraSans-Roman-2e"/>
       <use x="95.41015625" xlink:href="#BitstreamVeraSans-Roman-31"/>
       <use x="159.033203125" xlink:href="#BitstreamVeraSans-Roman-35"/>
      </g>
     </g>
    </g>
    <g id="ytick_5">
     <g id="line2d_29">
      <g>
       <use style="stroke:#000000;stroke-linecap:butt;stroke-width:0.5;" x="72.0" xlink:href="#me8a85f7bf6" y="191.314285714"/>
      </g>
     </g>
     <g id="line2d_30">
      <g>
       <use style="stroke:#000000;stroke-linecap:butt;stroke-width:0.5;" x="518.4" xlink:href="#m1a32005dea" y="191.314285714"/>
      </g>
     </g>
     <g id="text_14">
      <!-- 0.20 -->
      <g transform="translate(30.3040625 197.866004464)scale(0.18 -0.18)">
       <use xlink:href="#BitstreamVeraSans-Roman-30"/>
       <use x="63.623046875" xlink:href="#BitstreamVeraSans-Roman-2e"/>
       <use x="95.41015625" xlink:href="#BitstreamVeraSans-Roman-32"/>
       <use x="159.033203125" xlink:href="#BitstreamVeraSans-Roman-30"/>
      </g>
     </g>
    </g>
    <g id="ytick_6">
     <g id="line2d_31">
      <g>
       <use style="stroke:#000000;stroke-linecap:butt;stroke-width:0.5;" x="72.0" xlink:href="#me8a85f7bf6" y="141.942857143"/>
      </g>
     </g>
     <g id="line2d_32">
      <g>
       <use style="stroke:#000000;stroke-linecap:butt;stroke-width:0.5;" x="518.4" xlink:href="#m1a32005dea" y="141.942857143"/>
      </g>
     </g>
     <g id="text_15">
      <!-- 0.25 -->
      <g transform="translate(30.6809375 148.494575893)scale(0.18 -0.18)">
       <use xlink:href="#BitstreamVeraSans-Roman-30"/>
       <use x="63.623046875" xlink:href="#BitstreamVeraSans-Roman-2e"/>
       <use x="95.41015625" xlink:href="#BitstreamVeraSans-Roman-32"/>
       <use x="159.033203125" xlink:href="#BitstreamVeraSans-Roman-35"/>
      </g>
     </g>
    </g>
    <g id="ytick_7">
     <g id="line2d_33">
      <g>
       <use style="stroke:#000000;stroke-linecap:butt;stroke-width:0.5;" x="72.0" xlink:href="#me8a85f7bf6" y="92.5714285714"/>
      </g>
     </g>
     <g id="line2d_34">
      <g>
       <use style="stroke:#000000;stroke-linecap:butt;stroke-width:0.5;" x="518.4" xlink:href="#m1a32005dea" y="92.5714285714"/>
      </g>
     </g>
     <g id="text_16">
      <!-- 0.30 -->
      <g transform="translate(30.3040625 99.1231473214)scale(0.18 -0.18)">
       <use xlink:href="#BitstreamVeraSans-Roman-30"/>
       <use x="63.623046875" xlink:href="#BitstreamVeraSans-Roman-2e"/>
       <use x="95.41015625" xlink:href="#BitstreamVeraSans-Roman-33"/>
       <use x="159.033203125" xlink:href="#BitstreamVeraSans-Roman-30"/>
      </g>
     </g>
    </g>
    <g id="ytick_8">
     <g id="line2d_35">
      <g>
       <use style="stroke:#000000;stroke-linecap:butt;stroke-width:0.5;" x="72.0" xlink:href="#me8a85f7bf6" y="43.2"/>
      </g>
     </g>
     <g id="line2d_36">
      <g>
       <use style="stroke:#000000;stroke-linecap:butt;stroke-width:0.5;" x="518.4" xlink:href="#m1a32005dea" y="43.2"/>
      </g>
     </g>
     <g id="text_17">
      <!-- 0.35 -->
      <g transform="translate(30.6809375 49.75171875)scale(0.18 -0.18)">
       <use xlink:href="#BitstreamVeraSans-Roman-30"/>
       <use x="63.623046875" xlink:href="#BitstreamVeraSans-Roman-2e"/>
       <use x="95.41015625" xlink:href="#BitstreamVeraSans-Roman-33"/>
       <use x="159.033203125" xlink:href="#BitstreamVeraSans-Roman-35"/>
      </g>
     </g>
    </g>
   </g>
   <g id="patch_3">
    <path d="
M72 43.2
L518.4 43.2" style="fill:none;stroke:#000000;"/>
   </g>
   <g id="patch_4">
    <path d="
M518.4 388.8
L518.4 43.2" style="fill:none;stroke:#000000;"/>
   </g>
   <g id="patch_5">
    <path d="
M72 388.8
L518.4 388.8" style="fill:none;stroke:#000000;"/>
   </g>
   <g id="patch_6">
    <path d="
M72 388.8
L72 43.2" style="fill:none;stroke:#000000;"/>
   </g>
   <g id="legend_1">
    <g id="patch_7">
     <path d="
M335.472 114.037
L508.4 114.037
L508.4 53.2
L335.472 53.2
L335.472 114.037
z
" style="fill:#ffffff;stroke:#000000;"/>
    </g>
    <g id="line2d_37">
     <path d="
M349.472 69.3969
L377.472 69.3969" style="fill:none;stroke:#0000ff;"/>
    </g>
    <g id="line2d_38"/>
    <g id="text_18">
     <!-- E-R model -->
     <defs>
      <path id="BitstreamVeraSans-Roman-20"/>
      <path d="
M52 44.1875
Q55.375 50.25 60.0625 53.125
Q64.75 56 71.0938 56
Q79.6406 56 84.2812 50.0156
Q88.9219 44.0469 88.9219 33.0156
L88.9219 0
L79.8906 0
L79.8906 32.7188
Q79.8906 40.5781 77.0938 44.375
Q74.3125 48.1875 68.6094 48.1875
Q61.625 48.1875 57.5625 43.5469
Q53.5156 38.9219 53.5156 30.9062
L53.5156 0
L44.4844 0
L44.4844 32.7188
Q44.4844 40.625 41.7031 44.4062
Q38.9219 48.1875 33.1094 48.1875
Q26.2188 48.1875 22.1562 43.5312
Q18.1094 38.875 18.1094 30.9062
L18.1094 0
L9.07812 0
L9.07812 54.6875
L18.1094 54.6875
L18.1094 46.1875
Q21.1875 51.2188 25.4844 53.6094
Q29.7812 56 35.6875 56
Q41.6562 56 45.8281 52.9688
Q50 49.9531 52 44.1875" id="BitstreamVeraSans-Roman-6d"/>
      <path d="
M30.6094 48.3906
Q23.3906 48.3906 19.1875 42.75
Q14.9844 37.1094 14.9844 27.2969
Q14.9844 17.4844 19.1562 11.8438
Q23.3438 6.20312 30.6094 6.20312
Q37.7969 6.20312 41.9844 11.8594
Q46.1875 17.5312 46.1875 27.2969
Q46.1875 37.0156 41.9844 42.7031
Q37.7969 48.3906 30.6094 48.3906
M30.6094 56
Q42.3281 56 49.0156 48.375
Q55.7188 40.7656 55.7188 27.2969
Q55.7188 13.875 49.0156 6.21875
Q42.3281 -1.42188 30.6094 -1.42188
Q18.8438 -1.42188 12.1719 6.21875
Q5.51562 13.875 5.51562 27.2969
Q5.51562 40.7656 12.1719 48.375
Q18.8438 56 30.6094 56" id="BitstreamVeraSans-Roman-6f"/>
      <path d="
M9.8125 72.9062
L55.9062 72.9062
L55.9062 64.5938
L19.6719 64.5938
L19.6719 43.0156
L54.3906 43.0156
L54.3906 34.7188
L19.6719 34.7188
L19.6719 8.29688
L56.7812 8.29688
L56.7812 0
L9.8125 0
z
" id="BitstreamVeraSans-Roman-45"/>
      <path d="
M9.42188 75.9844
L18.4062 75.9844
L18.4062 0
L9.42188 0
z
" id="BitstreamVeraSans-Roman-6c"/>
      <path d="
M44.3906 34.1875
Q47.5625 33.1094 50.5625 29.5938
Q53.5625 26.0781 56.5938 19.9219
L66.6094 0
L56 0
L46.6875 18.7031
Q43.0625 26.0312 39.6719 28.4219
Q36.2812 30.8125 30.4219 30.8125
L19.6719 30.8125
L19.6719 0
L9.8125 0
L9.8125 72.9062
L32.0781 72.9062
Q44.5781 72.9062 50.7344 67.6719
Q56.8906 62.4531 56.8906 51.9062
Q56.8906 45.0156 53.6875 40.4688
Q50.4844 35.9375 44.3906 34.1875
M19.6719 64.7969
L19.6719 38.9219
L32.0781 38.9219
Q39.2031 38.9219 42.8438 42.2188
Q46.4844 45.5156 46.4844 51.9062
Q46.4844 58.2969 42.8438 61.5469
Q39.2031 64.7969 32.0781 64.7969
z
" id="BitstreamVeraSans-Roman-52"/>
      <path d="
M4.89062 31.3906
L31.2031 31.3906
L31.2031 23.3906
L4.89062 23.3906
z
" id="BitstreamVeraSans-Roman-2d"/>
      <path d="
M56.2031 29.5938
L56.2031 25.2031
L14.8906 25.2031
Q15.4844 15.9219 20.4844 11.0625
Q25.4844 6.20312 34.4219 6.20312
Q39.5938 6.20312 44.4531 7.46875
Q49.3125 8.73438 54.1094 11.2812
L54.1094 2.78125
Q49.2656 0.734375 44.1875 -0.34375
Q39.1094 -1.42188 33.8906 -1.42188
Q20.7969 -1.42188 13.1562 6.1875
Q5.51562 13.8125 5.51562 26.8125
Q5.51562 40.2344 12.7656 48.1094
Q20.0156 56 32.3281 56
Q43.3594 56 49.7812 48.8906
Q56.2031 41.7969 56.2031 29.5938
M47.2188 32.2344
Q47.125 39.5938 43.0938 43.9844
Q39.0625 48.3906 32.4219 48.3906
Q24.9062 48.3906 20.3906 44.1406
Q15.875 39.8906 15.1875 32.1719
z
" id="BitstreamVeraSans-Roman-65"/>
      <path d="
M45.4062 46.3906
L45.4062 75.9844
L54.3906 75.9844
L54.3906 0
L45.4062 0
L45.4062 8.20312
Q42.5781 3.32812 38.25 0.953125
Q33.9375 -1.42188 27.875 -1.42188
Q17.9688 -1.42188 11.7344 6.48438
Q5.51562 14.4062 5.51562 27.2969
Q5.51562 40.1875 11.7344 48.0938
Q17.9688 56 27.875 56
Q33.9375 56 38.25 53.625
Q42.5781 51.2656 45.4062 46.3906
M14.7969 27.2969
Q14.7969 17.3906 18.875 11.75
Q22.9531 6.10938 30.0781 6.10938
Q37.2031 6.10938 41.2969 11.75
Q45.4062 17.3906 45.4062 27.2969
Q45.4062 37.2031 41.2969 42.8438
Q37.2031 48.4844 30.0781 48.4844
Q22.9531 48.4844 18.875 42.8438
Q14.7969 37.2031 14.7969 27.2969" id="BitstreamVeraSans-Roman-64"/>
     </defs>
     <g transform="translate(399.471875 76.396875)scale(0.2 -0.2)">
      <use xlink:href="#BitstreamVeraSans-Roman-45"/>
      <use x="63.18359375" xlink:href="#BitstreamVeraSans-Roman-2d"/>
      <use x="99.267578125" xlink:href="#BitstreamVeraSans-Roman-52"/>
      <use x="168.75" xlink:href="#BitstreamVeraSans-Roman-20"/>
      <use x="200.537109375" xlink:href="#BitstreamVeraSans-Roman-6d"/>
      <use x="297.94921875" xlink:href="#BitstreamVeraSans-Roman-6f"/>
      <use x="359.130859375" xlink:href="#BitstreamVeraSans-Roman-64"/>
      <use x="422.607421875" xlink:href="#BitstreamVeraSans-Roman-65"/>
      <use x="484.130859375" xlink:href="#BitstreamVeraSans-Roman-6c"/>
     </g>
    </g>
    <g id="line2d_39">
     <path d="
M349.472 98.7531
L377.472 98.7531" style="fill:none;stroke:#008000;"/>
    </g>
    <g id="line2d_40"/>
    <g id="text_19">
     <!-- B-A model -->
     <defs>
      <path d="
M19.6719 34.8125
L19.6719 8.10938
L35.5 8.10938
Q43.4531 8.10938 47.2812 11.4062
Q51.125 14.7031 51.125 21.4844
Q51.125 28.3281 47.2812 31.5625
Q43.4531 34.8125 35.5 34.8125
z

M19.6719 64.7969
L19.6719 42.8281
L34.2812 42.8281
Q41.5 42.8281 45.0312 45.5312
Q48.5781 48.25 48.5781 53.8125
Q48.5781 59.3281 45.0312 62.0625
Q41.5 64.7969 34.2812 64.7969
z

M9.8125 72.9062
L35.0156 72.9062
Q46.2969 72.9062 52.3906 68.2188
Q58.5 63.5312 58.5 54.8906
Q58.5 48.1875 55.375 44.2344
Q52.25 40.2812 46.1875 39.3125
Q53.4688 37.75 57.5 32.7812
Q61.5312 27.8281 61.5312 20.4062
Q61.5312 10.6406 54.8906 5.3125
Q48.25 0 35.9844 0
L9.8125 0
z
" id="BitstreamVeraSans-Roman-42"/>
      <path d="
M34.1875 63.1875
L20.7969 26.9062
L47.6094 26.9062
z

M28.6094 72.9062
L39.7969 72.9062
L67.5781 0
L57.3281 0
L50.6875 18.7031
L17.8281 18.7031
L11.1875 0
L0.78125 0
z
" id="BitstreamVeraSans-Roman-41"/>
     </defs>
     <g transform="translate(399.471875 105.753125)scale(0.2 -0.2)">
      <use xlink:href="#BitstreamVeraSans-Roman-42"/>
      <use x="68.603515625" xlink:href="#BitstreamVeraSans-Roman-2d"/>
      <use x="102.4375" xlink:href="#BitstreamVeraSans-Roman-41"/>
      <use x="170.845703125" xlink:href="#BitstreamVeraSans-Roman-20"/>
      <use x="202.6328125" xlink:href="#BitstreamVeraSans-Roman-6d"/>
      <use x="300.044921875" xlink:href="#BitstreamVeraSans-Roman-6f"/>
      <use x="361.2265625" xlink:href="#BitstreamVeraSans-Roman-64"/>
      <use x="424.703125" xlink:href="#BitstreamVeraSans-Roman-65"/>
      <use x="486.2265625" xlink:href="#BitstreamVeraSans-Roman-6c"/>
     </g>
    </g>
   </g>
  </g>
 </g>
 <defs>
  <clipPath id="p7ff5b81e1d">
   <rect height="345.6" width="446.4" x="72.0" y="43.2"/>
  </clipPath>
 </defs>
</svg>
